Coordinates
version=1
nRows=65
nColumns=12
inDegrees=yes

Units are S.I. units (second, meters, Newtons, ...)
Angles are in degrees

endheader
time	SC_y	SC_z	SC_x	AC_y	AC_z	AC_x	GH_y	GH_z	GH_yy	EL_x	PS_y
       0.0              -59.13          20.63          72.73          47.54         -10.85          11.06          90.65          86.55         -50.05          8.843          103.3
   0.02364              -59.12          20.63          72.73          47.55         -10.85          11.06          90.66          86.55         -50.04          8.858          103.3
   0.04727              -59.12          20.63          72.73          47.55         -10.85          11.06          90.68          86.55         -50.02          8.874          103.3
   0.07091              -59.12          20.62          72.74          47.55         -10.84          11.06          90.69          86.54          -50.0          8.891          103.3
   0.09454              -59.12          20.62          72.74          47.55         -10.84          11.06          90.71          86.54         -49.98          8.909          103.3
    0.1182              -59.11          20.62          72.74          47.55         -10.84          11.06          90.72          86.54         -49.96          8.928          103.3
    0.1418              -59.11          20.61          72.74          47.55         -10.84          11.06          90.74          86.54         -49.94          8.948          103.3
    0.1654               -59.1          20.61          72.74          47.55         -10.84          11.06          90.76          86.53         -49.92           8.97          103.2
    0.1891               -59.1          20.61          72.74          47.55         -10.83          11.06          90.78          86.53          -49.9          8.993          103.2
    0.2127               -59.1           20.6          72.74          47.56         -10.83          11.06           90.8          86.53         -49.87          9.018          103.2
    0.2364              -59.09           20.6          72.74          47.56         -10.83          11.06          90.82          86.52         -49.84          9.045          103.2
      0.26              -59.09          20.59          72.74          47.56         -10.83          11.05          90.85          86.52         -49.81          9.074          103.2
    0.2836              -59.08          20.58          72.75          47.56         -10.82          11.05          90.87          86.51         -49.78          9.105          103.2
    0.3073              -59.08          20.58          72.75          47.56         -10.82          11.05           90.9          86.51         -49.75          9.139          103.2
    0.3309              -59.07          20.57          72.75          47.56         -10.82          11.05          90.93           86.5         -49.71          9.175          103.2
    0.3545              -59.06          20.56          72.75          47.57         -10.81          11.05          90.97           86.5         -49.67          9.214          103.2
    0.3782              -59.06          20.56          72.75          47.57         -10.81          11.05           91.0          86.49         -49.62          9.257          103.2
    0.4018              -59.05          20.55          72.76          47.57         -10.81          11.05          91.04          86.48         -49.57          9.304          103.1
    0.4254              -59.04          20.54          72.76          47.58          -10.8          11.05          91.08          86.48         -49.52          9.355          103.1
    0.4491              -59.03          20.53          72.76          47.58          -10.8          11.05          91.13          86.47         -49.46          9.411          103.1
    0.4727              -59.02          20.52          72.76          47.58         -10.79          11.05          91.18          86.46          -49.4          9.472          103.1
    0.4963              -59.01           20.5          72.77          47.59         -10.78          11.05          91.24          86.45         -49.33           9.54          103.1
      0.52               -59.0          20.49          72.77          47.59         -10.78          11.05           91.3          86.44         -49.25          9.614          103.0
    0.5436              -58.98          20.47          72.77           47.6         -10.77          11.05          91.37          86.43         -49.17          9.697          103.0
    0.5673              -58.97          20.46          72.78           47.6         -10.76          11.04          91.45          86.41         -49.07          9.789          103.0
    0.5909              -58.95          20.44          72.78          47.61         -10.75          11.04          91.54           86.4         -48.96          9.891          103.0
    0.6145              -58.93          20.42          72.79          47.62         -10.74          11.04          91.63          86.38         -48.85          10.01          102.9
    0.6382              -58.91          20.39           72.8          47.62         -10.73          11.04          91.74          86.36         -48.71          10.14          102.9
    0.6618              -58.89          20.36           72.8          47.63         -10.71          11.04          91.87          86.34         -48.56          10.28          102.8
    0.6854              -58.86          20.33          72.81          47.64          -10.7          11.03          92.01          86.32         -48.39          10.45          102.8
    0.7091              -58.83           20.3          72.82          47.65         -10.68          11.03          92.17          86.29         -48.19          10.64          102.7
    0.7327              -58.79          20.26          72.83          47.67         -10.66          11.03          92.35          86.26         -47.97          10.85          102.7
    0.7563              -58.75          20.21          72.84          47.68         -10.64          11.02          92.56          86.22         -47.71           11.1          102.6
      0.78               -58.7          20.16          72.86           47.7         -10.61          11.02          92.81          86.18          -47.4           11.4          102.5
    0.8036              -58.64          20.09          72.87          47.72         -10.58          11.01          93.09          86.13         -47.05          11.74          102.4
    0.8272              -58.58          20.02          72.89          47.74         -10.54          11.01          93.43          86.07         -46.63          12.14          102.3
    0.8509               -58.5          19.93          72.92          47.77         -10.49           11.0          93.83           86.0         -46.14          12.61          102.1
    0.8745               -58.4          19.82          72.94          47.81         -10.44          10.99          94.32          85.92         -45.55          13.19          101.9
    0.8981              -58.28          19.69          72.98          47.85         -10.38          10.98           94.9          85.82         -44.83          13.88          101.7
    0.9218              -58.14          19.53          73.02           47.9          -10.3          10.96          95.62          85.69         -43.95          14.72          101.5
    0.9454              -57.97          19.34          73.07          47.96          -10.2          10.95           96.5          85.54         -42.87          15.77          101.2
    0.9691              -57.75          19.09          73.13          48.04         -10.08          10.93          97.59          85.35         -41.52          17.07          100.8
    0.9927              -57.48          18.78          73.21          48.14         -9.923           10.9          98.98          85.11         -39.82          18.71          100.2
     1.016              -57.13          18.39          73.31          48.27         -9.727          10.87          100.7          84.81         -37.65          20.79          99.61
      1.04              -56.68          17.89          73.44          48.43         -9.477          10.82          103.0          84.42         -34.89          23.46          98.79
     1.064              -56.11          17.25           73.6          48.64         -9.155          10.77          105.9          83.92         -31.33          26.88          97.73
     1.087              -55.38          16.43          73.81           48.9         -8.745           10.7          109.6          83.28          -26.8          31.26          96.38
     1.111              -54.46           15.4          74.08          49.23         -8.229          10.61          114.2          82.48         -21.09          36.76          94.69
     1.135              -53.34          14.14           74.4          49.64           -7.6           10.5          119.9           81.5         -14.14          43.46          92.63
     1.158              -52.04          12.69          74.78          50.11         -6.871          10.38          126.4          80.37         -6.082          51.22          90.24
     1.182              -50.64          11.11          75.18          50.62         -6.081          10.25          133.5          79.14          2.644          59.63          87.65
     1.205              -49.23          9.534          75.59          51.13         -5.292          10.11          140.6          77.92          11.37          68.04          85.06
     1.229              -47.94          8.078          75.96           51.6         -4.563          9.987          147.2          76.79          19.43          75.81          82.67
     1.253              -46.82          6.822          76.29           52.0         -3.934           9.88          152.8          75.81          26.38          82.51           80.6
     1.276               -45.9          5.791          76.55          52.33         -3.418          9.792          157.5          75.01          32.08          88.01          78.91
       1.3              -45.17          4.971          76.76           52.6         -3.008          9.722          161.1          74.37          36.62          92.38          77.56
     1.324               -44.6          4.329          76.93           52.8         -2.686          9.667          164.0          73.87          40.17           95.8          76.51
     1.347              -44.15          3.829          77.06          52.97         -2.436          9.624          166.3          73.48          42.94          98.47          75.69
     1.371               -43.8          3.438          77.16          53.09          -2.24          9.591          168.0          73.18           45.1          100.6          75.04
     1.394              -43.53          3.131          77.24          53.19         -2.086          9.565          169.4          72.94           46.8          102.2          74.54
     1.418              -43.31          2.887           77.3          53.27         -1.964          9.544          170.5          72.75          48.15          103.5          74.14
     1.442              -43.14          2.691          77.35          53.33         -1.866          9.527          171.4           72.6          49.24          104.5          73.82
     1.465               -43.0          2.533          77.39          53.38         -1.787          9.514          172.1          72.47          50.11          105.4          73.56
     1.489              -42.88          2.403          77.42          53.43         -1.722          9.503          172.7          72.37          50.83          106.1          73.34
     1.513              -42.78          2.296          77.45          53.46         -1.668          9.494          173.2          72.29          51.43          106.6          73.17
